<?xml version="1.0" encoding="UTF-8"?>
<svg id="Layer_1" data-name="Layer 1" xmlns="http://www.w3.org/2000/svg" viewBox="0 0 547.36 440.29">
  <defs>
    <style>
      .cls-1 {
        fill: #efeeee;
      }

      .cls-2 {
        fill: #dcdddd;
      }
    </style>
  </defs>
  <g>
    <path class="cls-1" d="M78.53,288.91c8.6,21.32,20.47,40.32,34.8,56.69,7.16-18.79,25.35-32.14,46.65-32.14,27.57,0,49.92,22.35,49.92,49.92,0,6.92-1.41,13.53-3.96,19.52,1.45-.19,2.94-.29,4.45-.29,11.89,0,22.35,6.09,28.45,15.31,1.63-.92,3.51-1.44,5.52-1.44,4.76,0,8.82,2.94,10.5,7.09,.43-.02,.87-.02,1.31-.02,9.25,0,17.64,3.63,23.85,9.54,11.38-.95,22.8-2.89,34.12-5.87,2.07-3.29,5.55-5.6,9.6-6.08,4.79-13.01,17.3-22.3,31.97-22.3,1.23,0,2.44,.07,3.63,.19-.06-.43-.09-.86-.09-1.31,0-5.33,4.31-9.64,9.64-9.64,1.52,0,2.95,.35,4.23,.98,.36-1.37,.79-2.71,1.28-4.03-87.05,21.38-178.85-23.89-213.39-109.43-33.32-82.55-2.22-175.12,69.62-221.98,27.48-17.92,62.23-28.63-5.73-15.16C102.73,42.73,31.45,172.3,78.53,288.91h0Z"/>
    <path class="cls-2" d="M100.7,204.83c-11.62,4.68-18.45,18.4-15.26,30.62,3.19,12.23,15.19,18.33,26.8,13.64,11.62-4.68,18.45-18.4,15.26-30.62-3.19-12.23-15.19-18.33-26.8-13.64Z"/>
    <path class="cls-1" d="M92.35,246.47c5.31,4.29,12.67,5.54,19.87,2.62,11.62-4.68,18.45-18.4,15.27-30.62-.93-3.57-2.61-6.62-4.82-9.03-5.3-4.28-12.66-5.53-19.87-2.62-11.62,4.69-18.45,18.4-15.26,30.63,.93,3.57,2.61,6.62,4.82,9.03Z"/>
    <path class="cls-2" d="M151.22,86.77c7-2.83,14.12,.9,15.89,8.33,1.78,7.42-2.46,15.73-9.45,18.56-7,2.83-14.12-.9-15.89-8.33-1.78-7.42,2.45-15.73,9.45-18.56Z"/>
  </g>
  <polygon class="cls-1" points="505.53 33.11 515.96 64.53 547.36 74.99 515.96 85.47 505.53 116.88 495.01 85.47 463.63 74.99 495.01 64.53 505.53 33.11"/>
  <polygon class="cls-1" points="74.01 0 79.4 16.07 95.48 21.43 79.4 26.79 74.01 42.86 68.62 26.79 52.62 21.43 68.62 16.07 74.01 0"/>
  <polygon class="cls-1" points="18.53 298.04 23.14 311.92 36.96 316.56 23.14 321.18 18.53 335.06 13.84 321.18 .01 316.56 13.84 311.92 18.53 298.04"/>
  <path class="cls-1" d="M210.34,382.61c11.89,0,22.35,6.09,28.45,15.31,1.64-.91,3.52-1.43,5.52-1.43,4.76,0,8.83,2.93,10.5,7.08,.43-.01,.87-.02,1.31-.02,19.09,0,34.57,15.48,34.57,34.58,0,.73-.02,1.44-.07,2.16-1.16-18.76-17.42-34.78-36.17-34.11-.64-7.53-11.92-10.45-15.97-6.28-4.7-11.06-24.04-17.88-32.61-17,1.29-.24,4.06-.31,4.45-.29h0Z"/>
  <path class="cls-1" d="M49.92,368.49c4.01,0,7.9,.47,11.63,1.37,2.74-5.16,8.17-8.68,14.42-8.68,4.56,0,8.69,1.88,11.65,4.89,4.56-3.08,10.06-4.88,15.99-4.88,2.22,0,4.39,.26,6.48,.74,.77-26.89,22.81-48.47,49.89-48.47s49.92,22.35,49.92,49.92c0,.73-.02,1.45-.05,2.18-1.12-26.58-23.02-47.79-49.87-47.79s-49.12,21.57-49.89,48.46c-2.08-.48-4.25-.74-6.48-.74-5.92,0-11.43,1.8-15.99,4.88-2.96-3.02-7.09-4.89-11.65-4.89-6.25,0-11.68,3.52-14.42,8.67-3.73-.89-7.63-1.37-11.63-1.37-26.85,0-48.74,21.2-49.87,47.77-.03-.71-.05-1.43-.05-2.15,0-27.57,22.35-49.92,49.92-49.92h0Z"/>
  <path class="cls-1" d="M355.72,378.86c1.23,0,2.44,.07,3.63,.2-.05-.43-.09-.87-.09-1.31,0-5.32,4.32-9.64,9.64-9.64,1.52,0,2.95,.35,4.23,.98,4.71-17.91,21.02-31.13,40.41-31.13,17.25,0,32.06,10.46,38.44,25.38,1-.54,2.13-.84,3.34-.84,3.82,0,6.92,3.04,7.01,6.82,.36-4.52-8.56-7.61-10.64-5.25-6.38-14.92-18.96-22.9-37.28-22.9s-35.71,13.22-40.41,31.13c-1.28-.63-2.71-.98-4.23-.98-5.32,0-9.64,4.31-9.64,9.64,0,.44,.03,.88,.09,1.31-1.19-.12-2.4-.19-3.63-.19-14.67,0-27.18,9.28-31.97,22.3-6.54,.76-11.6,6.32-11.6,13.05,0,.62,.05,1.23,.12,1.83-.64-1.55-1-3.26-1-5.04,0-6.74,5.07-12.29,11.61-13.06,4.79-13.01,17.29-22.3,31.97-22.3h0Zm106.77-9.26c.81-.07,1.65-.1,2.48-.1,14.73,0,27.03,10.38,30,24.22-3.53-10.64-8.54-15.93-13.59-18.67-8.53-4.62-14.88-5.03-18.88-5.46Z"/>
  <path class="cls-1" d="M88.35,369.07c3.47,0,6.28,2.82,6.28,6.28,0,.29-.02,.58-.06,.86-.42-3.06-3.04-5.42-6.22-5.42s-5.81,2.36-6.22,5.42c-.04-.28-.06-.56-.06-.86,0-3.47,2.81-6.28,6.28-6.28Z"/>
  <path class="cls-1" d="M203.3,379.96c3.19,0,5.78,2.59,5.78,5.78,0,2.23-1.26,4.16-3.12,5.12,.72-.96,1.14-2.15,1.14-3.45,0-3.19-2.58-5.77-5.77-5.77-.96,0-1.86,.24-2.66,.65,1.05-1.41,2.73-2.33,4.63-2.33Z"/>
  <path class="cls-1" d="M363.02,381.2c1.65,0,3.13,.72,4.15,1.86-.8-.44-1.71-.69-2.69-.69-3.06,0-5.55,2.49-5.55,5.55,0,1.42,.53,2.71,1.4,3.69-1.71-.95-2.86-2.77-2.86-4.86,0-3.07,2.49-5.55,5.55-5.55Z"/>
  <polygon class="cls-1" points="443.8 281.84 446.06 288.85 453.1 291.18 446.06 293.53 443.8 300.54 441.46 293.53 434.41 291.18 441.46 288.85 443.8 281.84"/>
</svg>