<?xml version="1.0" encoding="UTF-8"?>
<svg id="Layer_1" data-name="Layer 1" xmlns="http://www.w3.org/2000/svg" viewBox="0 0 483.15 532.95">
  <defs>
    <style>
      .cls-1 {
        fill: #efeeee;
      }

      .cls-2 {
        fill: #dcdddd;
      }

      .cls-3 {
        fill: #3f3d54;
      }
    </style>
  </defs>
  <path class="cls-2" d="M442.19,305.75H86.67c-118.2,40.27,109.48,16.24,117.52,50.26,9.28,39.33-88.26,19.39-98.49,54.52-9.18,31.54,182.47,40.73,193.4,78.58,9.66,33.46-132.23,40.67-154.71,40.67,21.05,12.72,337.71-13.07,229.87-75-24.33-13.96-51.07-33.78-42.86-68.67,6.16-26.13,144.93-51.41,145.17-63.07,.25-11.66-25.94-17.65-34.37-17.28h0Z"/>
  <path class="cls-2" d="M141.27,359.77H27.31c-.46-4.17,97.98-5.34,113.96,0Z"/>
  <path class="cls-2" d="M143.18,461.06H0c25.14-3.7,115.42-6.63,143.18,0Z"/>
  <path class="cls-2" d="M483.15,398.73h-74.99c15.58-5.41,60.99-5.19,74.99,0Z"/>
  <g>
    <path class="cls-1" d="M264.38,0C151.43,0,59.86,91.57,59.86,204.52c0,36.83,9.73,71.38,26.77,101.23H442.14c17.04-29.85,26.77-64.4,26.77-101.23C468.91,91.57,377.34,0,264.38,0h0Z"/>
    <path class="cls-2" d="M378.11,279.7c-13.76,0-26.06,11.16-27.47,24.92-.04,.38-.07,.76-.09,1.14h49.78c.06-.38,.11-.75,.14-1.14,1.41-13.76-8.6-24.92-22.36-24.92Z"/>
    <path class="cls-1" d="M378.11,279.7c-13.76,0-26.06,11.16-27.47,24.92-.04,.38-.07,.76-.09,1.14h48.01c.21-.95,.37-1.92,.47-2.91,.62-6.09-1-11.68-4.19-16.01-4.04-4.42-9.93-7.14-16.73-7.14h0Z"/>
    <path class="cls-2" d="M357.25,85.34c-21.56,0-37.31,17.48-35.17,39.04,2.13,21.56,21.34,39.04,42.9,39.04s37.31-17.48,35.17-39.04c-2.13-21.56-21.34-39.04-42.9-39.04Z"/>
    <path class="cls-1" d="M338.99,90.1c-11.47,6.62-18.43,19.49-16.96,34.29,2.13,21.56,21.34,39.04,42.9,39.04,5.16,0,9.97-1,14.31-2.82,11.47-6.63,18.42-19.49,16.96-34.29-2.13-21.56-21.34-39.04-42.9-39.04-5.16,0-9.98,1-14.3,2.82h0Z"/>
    <path class="cls-2" d="M221.86,181.7c-28.21,0-51.08,22.87-51.08,51.08s22.87,51.08,51.08,51.08,51.08-22.87,51.08-51.08-22.87-51.08-51.08-51.08Z"/>
    <path class="cls-2" d="M113.18,133.1c-12.84,0-24.61,10.41-26.26,23.26-1.67,12.84,7.4,23.26,20.25,23.26s24.6-10.41,26.26-23.26c1.67-12.84-7.4-23.26-20.24-23.26h0Z"/>
    <path class="cls-1" d="M89.36,169.49c3.4,6.11,9.92,10.12,17.88,10.12,12.84,0,24.6-10.41,26.26-23.25,.49-3.76,.05-7.3-1.12-10.44-3.4-6.11-9.91-10.12-17.88-10.12-12.84,0-24.6,10.41-26.26,23.26-.49,3.76-.05,7.3,1.12,10.44h0Z"/>
    <path class="cls-1" d="M223.69,185.16c-26.29,0-47.6,21.32-47.6,47.62s21.32,47.61,47.6,47.61,47.61-21.32,47.61-47.61-21.32-47.62-47.61-47.62Z"/>
    <path class="cls-2" d="M206.57,40.26c7.74,0,13.07,6.27,11.92,14.01-1.16,7.74-8.37,14.02-16.11,14.02s-13.08-6.28-11.92-14.02c1.16-7.74,8.38-14.01,16.12-14.01Z"/>
    <path class="cls-2" d="M412.19,209.77c4,0,7.23,4.75,7.23,10.6s-3.24,10.6-7.23,10.6-7.22-4.75-7.22-10.6,3.24-10.6,7.22-10.6Z"/>
  </g>
  <path class="cls-3" d="M365.16,335.64h-104.71c5.34-3.05,92.27-4.19,104.71,0Z"/>
  <path class="cls-3" d="M245.86,417.95h-55.03c-2.78-.34,46.43-2.12,55.03,0Z"/>
</svg>