<?xml version="1.0" encoding="UTF-8"?>
<svg id="Layer_1" data-name="Layer 1" xmlns="http://www.w3.org/2000/svg" viewBox="0 0 409.06 409.06">
  <defs>
    <style>
      .cls-1 {
        fill: #efeeee;
      }

      .cls-2 {
        fill: #dcdddd;
      }
    </style>
  </defs>
  <g>
    <circle class="cls-1" cx="204.53" cy="204.53" r="204.53" transform="translate(-25.75 379.56) rotate(-82.24)"/>
    <path class="cls-2" d="M318.24,279.7c-13.76,0-26.06,11.15-27.47,24.92-1.41,13.76,8.61,24.92,22.37,24.92s26.06-11.15,27.47-24.92c1.41-13.76-8.61-24.92-22.37-24.92Z"/>
    <path class="cls-1" d="M318.23,279.7c-13.76,0-26.06,11.15-27.47,24.92-.62,6.1,1,11.68,4.19,16.01,4.04,4.42,9.92,7.13,16.72,7.13,13.76,0,26.06-11.15,27.47-24.92,.62-6.09-1-11.68-4.19-16.01-4.04-4.42-9.93-7.14-16.73-7.14h0Z"/>
    <path class="cls-2" d="M297.35,85.35c-21.56,0-37.31,17.48-35.17,39.04,2.13,21.56,21.34,39.04,42.9,39.04s37.31-17.48,35.17-39.04c-2.14-21.56-21.35-39.04-42.9-39.04Z"/>
    <path class="cls-1" d="M279.14,90.1c-11.47,6.62-18.43,19.49-16.97,34.29,2.14,21.56,21.35,39.04,42.9,39.04,5.16,0,9.98-1,14.3-2.82,11.48-6.63,18.43-19.49,16.96-34.29-2.14-21.56-21.34-39.04-42.9-39.04-5.15,0-9.97,1-14.3,2.82Z"/>
    <path class="cls-2" d="M161.97,181.69c28.21,0,51.08,22.87,51.08,51.08s-22.87,51.08-51.08,51.08-51.08-22.87-51.08-51.08,22.87-51.08,51.08-51.08Z"/>
    <path class="cls-2" d="M53.36,133.11c-12.84,0-24.6,10.41-26.26,23.26-1.66,12.84,7.4,23.25,20.25,23.25s24.6-10.41,26.26-23.25c1.66-12.84-7.4-23.26-20.25-23.26Z"/>
    <path class="cls-1" d="M29.47,169.5c3.4,6.11,9.91,10.12,17.88,10.12,12.84,0,24.6-10.41,26.26-23.26,.49-3.75,.05-7.3-1.12-10.44-3.4-6.11-9.92-10.12-17.88-10.12-12.84,0-24.6,10.41-26.26,23.26-.49,3.75-.05,7.3,1.12,10.44h0Z"/>
    <path class="cls-1" d="M163.84,185.16c26.29,0,47.61,21.32,47.61,47.61s-21.32,47.61-47.61,47.61-47.61-21.32-47.61-47.61,21.32-47.61,47.61-47.61Z"/>
  </g>
  <path class="cls-2" d="M146.71,40.26c7.74,0,13.08,6.27,11.92,14.01-1.16,7.74-8.37,14.02-16.11,14.02s-13.08-6.28-11.92-14.02,8.37-14.01,16.11-14.01Z"/>
  <path class="cls-2" d="M352.32,209.77c3.99,0,7.23,4.75,7.23,10.6s-3.24,10.6-7.23,10.6-7.23-4.75-7.23-10.6,3.24-10.6,7.23-10.6Z"/>
</svg>