<?xml version="1.0" encoding="UTF-8"?>
<svg id="Layer_1" data-name="Layer 1" xmlns="http://www.w3.org/2000/svg" viewBox="0 0 520.13 515.79">
  <defs>
    <style>
      .cls-1 {
        fill: #efeeee;
      }

      .cls-2 {
        fill: #dcdddd;
      }
    </style>
  </defs>
  <g>
    <path class="cls-1" d="M329.89,19c-112.96,0-204.53,91.57-204.53,204.52s91.57,204.53,204.53,204.53c16.66,0,32.85-2,48.35-5.75,50.18-12.17,28.46-8.68-.55-12.81-91.09-12.97-161.13-91.3-161.13-185.97S281.64,56.19,367.92,39.21c33-6.49,70.15-3.34,.38-16.61-12.44-2.37-25.28-3.61-38.42-3.61h0Z"/>
    <path class="cls-2" d="M178.68,152.1c-12.84,0-24.6,10.41-26.26,23.26-1.67,12.84,7.4,23.26,20.24,23.26s24.6-10.41,26.26-23.26c1.66-12.84-7.41-23.26-20.25-23.26Z"/>
    <path class="cls-1" d="M154.86,188.5c3.4,6.11,9.91,10.12,17.88,10.12,12.84,0,24.6-10.41,26.26-23.26,.49-3.75,.06-7.3-1.11-10.44-3.4-6.11-9.92-10.12-17.88-10.12-12.84,0-24.6,10.41-26.26,23.26-.49,3.75-.05,7.3,1.12,10.43h0Z"/>
    <path class="cls-2" d="M272.07,59.26c7.74,0,13.07,6.27,11.92,14.02-1.16,7.73-8.38,14.01-16.12,14.01s-13.07-6.28-11.92-14.01c1.16-7.75,8.38-14.02,16.11-14.02h0Z"/>
    <polygon class="cls-1" points="104.69 0 115.55 32.5 148.07 43.34 115.55 54.18 104.69 86.68 93.91 54.18 61.39 43.34 93.91 32.5 104.69 0"/>
    <polygon class="cls-1" points="473.35 212.34 485.09 247.4 520.13 259.08 485.09 270.77 473.35 305.83 461.7 270.77 426.66 259.08 461.7 247.4 473.35 212.34"/>
    <polygon class="cls-1" points="103.3 343.81 108.34 359.16 123.73 364.27 108.34 369.38 103.3 384.73 98.17 369.38 82.78 364.27 98.17 359.16 103.3 343.81"/>
  </g>
  <polygon class="cls-1" points="359.97 144.11 364.66 158.13 378.66 162.81 364.66 167.48 359.97 181.51 355.28 167.48 341.27 162.81 355.28 158.13 359.97 144.11"/>
  <polygon class="cls-1" points="362.31 483.06 366.41 495.33 378.66 499.42 366.41 503.52 362.31 515.79 358.23 503.52 345.97 499.42 358.23 495.33 362.31 483.06"/>
  <polygon class="cls-1" points="25.74 130.08 32.17 149.37 51.39 155.79 32.17 162.23 25.74 181.51 19.3 162.23 0 155.79 19.3 149.37 25.74 130.08"/>
</svg>