<?xml version="1.0" encoding="UTF-8"?>
<svg id="Layer_1" data-name="Layer 1" xmlns="http://www.w3.org/2000/svg" viewBox="0 0 771.77 478.93">
  <defs>
    <style>
      .cls-1 {
        fill: #efeeee;
      }

      .cls-2 {
        fill: #dcdddd;
      }
    </style>
  </defs>
  <g>
    <path class="cls-1" d="M333.55,360.27c3.97-4.31,9.65-7,15.96-7,11.98,0,21.69,9.71,21.69,21.69,0,2.33-.37,4.58-1.05,6.68,24.17,3.3,43.81,20.78,50.29,43.78,9.19-6.46,20.38-10.26,32.47-10.26,31.2,0,56.49,25.29,56.49,56.5,0,2.47-.16,4.9-.47,7.29-.1-49.23-66.25-70.72-89.95-48.68-6.48-23-27.35-38.28-51.51-41.58,6.95-21.48-20.66-39.57-35.62-23.31-13.79-19.4-56-26.74-56.58-26.71-4.22-37.32-35.14-57.93-73.81-57.93s-70.82,29.64-74.49,67.55c-.23-2.4-.36-4.84-.36-7.3,0-41.34,33.51-74.84,74.84-74.84,38.46,0,70.14,29.01,74.36,66.34,22.84-1.23,44.47,9.13,57.74,27.8h0ZM.44,471.13c-.29-2.39-.44-4.82-.44-7.29,0-33.35,27.04-60.38,60.39-60.38,1.73,0,3.45,.07,5.15,.22,3.06-6.74,9.85-11.42,17.74-11.42,1.78,0,3.5,.24,5.13,.68,7.88-17.49,21.42-31.88,38.29-40.83-.05,1.14-.08,2.29-.08,3.45,0,3.66,.27,7.25,.77,10.77-17.19,8.93-30.51,16.4-38.5,34.14-9.19-2.49-19.63-.93-23.6,7.81-32.33-2.73-60.96,30.55-64.86,62.86H.44Z"/>
    <path class="cls-1" d="M267.42,336.23c13.85,0,25.08,11.23,25.08,25.08,0,3.95-.91,7.68-2.54,11,.06-.74,.1-1.48,.1-2.23,0-13.85-11.23-25.08-25.08-25.08-9.9,0-18.47,5.75-22.54,14.08,1.13-12.81,11.88-22.85,24.98-22.85Z"/>
    <path class="cls-1" d="M68.17,404.95c3.54,0,6.66,1.79,8.52,4.5-1.33-.5-2.76-.77-4.26-.77-6.73,0-12.18,5.45-12.18,12.18,0,.36,.02,.72,.04,1.07-1.52-1.8-2.45-4.13-2.45-6.67,0-5.7,4.62-10.32,10.32-10.32h0Z"/>
  </g>
  <g>
    <path class="cls-1" d="M577.93,229.88c5.05-14.75,19.03-25.35,35.49-25.35,3.94,0,7.73,.61,11.3,1.74,7.77-23.76,30.12-40.92,56.48-40.92,28.46,0,52.25,20.01,58.06,46.73,2.21-.62,4.55-.96,6.96-.96,14.12,0,25.56,11.45,25.56,25.57,0,1.18-.08,2.35-.24,3.49-.03-16.04-17.5-31.49-33.17-26.4-5.62-25.88-27.55-37.97-54.09-37.97s-50.81,11.75-58.33,34.75c-14.41-4.54-40.68,5.23-46.15,21.23-3.53-.86-11.19,5.43-11.19,10.57-27.29,2.06-42.18,43.97-17.58,66.5-10.74-6.72-17.88-18.64-17.88-32.24,0-19.41,14.56-35.42,33.36-37.71v-.04c0-5.11,4.14-9.26,9.25-9.26,.75,0,1.48,.09,2.18,.26h0Z"/>
    <path class="cls-1" d="M629.82,208.31c2.76,0,5.13,1.66,6.17,4.03-1.19-1.03-2.74-1.66-4.43-1.66-3.72,0-6.74,3.02-6.74,6.75,0,.96,.2,1.88,.57,2.71-1.41-1.24-2.31-3.06-2.31-5.08,0-3.73,3.02-6.75,6.75-6.75Z"/>
  </g>
  <g>
    <path class="cls-1" d="M371.38,0c-112.96,0-204.53,91.57-204.53,204.53,0,22.91,3.77,44.93,10.71,65.49,7.5-2.53,15.53-3.89,23.89-3.89,38.46,0,70.14,29.01,74.36,66.34,22.84-1.23,44.46,9.14,57.73,27.8,3.97-4.31,9.65-7,15.96-7,11.98,0,21.69,9.71,21.69,21.69,0,2.33-.37,4.58-1.05,6.68,16.44,2.24,30.78,11.05,40.31,23.68,58.9-11.39,108.8-48.06,137.94-98.26-9.26-6.93-15.25-17.98-15.25-30.43,0-19.41,14.56-35.42,33.36-37.71v-.04c0-4.64,3.41-8.48,7.86-9.15,1.02-8.26,1.55-16.66,1.55-25.2C575.91,91.57,484.34,0,371.38,0h0Z"/>
    <path class="cls-2" d="M485.09,279.71c-13.76,0-26.06,11.16-27.47,24.92-1.41,13.75,8.61,24.92,22.37,24.92s26.05-11.16,27.46-24.92c1.41-13.76-8.6-24.92-22.36-24.92Z"/>
    <path class="cls-1" d="M485.09,279.71c-13.76,0-26.06,11.16-27.47,24.92-.63,6.09,.99,11.68,4.19,16.01,4.04,4.41,9.92,7.13,16.72,7.13,13.76,0,26.06-11.15,27.47-24.92,.62-6.1-1-11.68-4.19-16.01-4.04-4.41-9.93-7.14-16.73-7.14h0Z"/>
    <path class="cls-2" d="M464.21,85.35c-21.56,0-37.31,17.48-35.17,39.04,2.13,21.56,21.34,39.04,42.9,39.04s37.31-17.47,35.17-39.04c-2.13-21.56-21.34-39.04-42.9-39.04Z"/>
    <path class="cls-1" d="M446,90.1c-11.47,6.62-18.43,19.49-16.96,34.29,2.13,21.56,21.34,39.04,42.9,39.04,5.15,0,9.98-1,14.3-2.82,11.47-6.62,18.43-19.5,16.96-34.29-2.13-21.56-21.34-39.04-42.9-39.04-5.15,0-9.97,1-14.3,2.82h0Z"/>
    <path class="cls-2" d="M328.83,181.7c-28.21,0-51.08,22.87-51.08,51.08s22.87,51.08,51.08,51.08,51.08-22.87,51.08-51.08-22.87-51.08-51.08-51.08Z"/>
    <path class="cls-2" d="M220.22,133.1c-12.84,0-24.6,10.41-26.26,23.26-1.66,12.84,7.4,23.26,20.25,23.26s24.6-10.41,26.26-23.26c1.66-12.85-7.4-23.26-20.25-23.26Z"/>
    <path class="cls-1" d="M196.32,169.5c3.4,6.11,9.92,10.12,17.88,10.12,12.85,0,24.6-10.41,26.26-23.26,.49-3.75,.05-7.3-1.12-10.44-3.4-6.11-9.92-10.12-17.89-10.12-12.84,0-24.6,10.41-26.26,23.26-.49,3.75-.05,7.3,1.12,10.44h0Z"/>
    <path class="cls-1" d="M330.69,185.17c-26.29,0-47.61,21.32-47.61,47.61s21.32,47.61,47.61,47.61,47.61-21.32,47.61-47.61-21.31-47.61-47.61-47.61Z"/>
    <path class="cls-2" d="M313.57,40.26c7.74,0,13.08,6.27,11.92,14.01-1.16,7.74-8.37,14.02-16.11,14.02s-13.08-6.28-11.92-14.02,8.37-14.01,16.11-14.01Z"/>
    <path class="cls-2" d="M519.17,209.77c3.99,0,7.23,4.75,7.23,10.6s-3.24,10.6-7.23,10.6-7.23-4.75-7.23-10.6,3.24-10.6,7.23-10.6Z"/>
  </g>
</svg>