<?xml version="1.0" encoding="UTF-8"?>
<svg id="Layer_1" data-name="Layer 1" xmlns="http://www.w3.org/2000/svg" viewBox="0 0 631.68 547.37">
  <defs>
    <style>
      .cls-1 {
        fill: #f4f4f4;
      }

      .cls-2 {
        fill: #e5e5e5;
      }
    </style>
  </defs>
  <path class="cls-2" d="M254.24,466.01c-3.91,0-6.6,3.16-6.01,7.06,.58,3.91,4.22,7.07,8.13,7.07s6.59-3.16,6.01-7.07c-.59-3.9-4.22-7.06-8.12-7.06Z"/>
  <g>
    <g>
      <circle class="cls-1" cx="301.71" cy="300.77" r="204.53" transform="translate(-37.42 558.6) rotate(-82.15)"/>
      <path class="cls-2" d="M415.42,375.94c-13.76,0-26.06,11.16-27.47,24.92-1.41,13.76,8.61,24.92,22.37,24.92s26.06-11.15,27.47-24.92c1.41-13.76-8.61-24.92-22.37-24.92Z"/>
      <path class="cls-1" d="M415.42,375.94c-13.76,0-26.06,11.16-27.47,24.92-.62,6.1,1,11.68,4.19,16.01,4.04,4.42,9.92,7.14,16.72,7.14,13.76,0,26.06-11.15,27.47-24.92,.62-6.1-1-11.68-4.19-16.01-4.04-4.41-9.93-7.14-16.73-7.14Z"/>
      <path class="cls-2" d="M394.54,181.58c-21.56,0-37.31,17.48-35.17,39.04,2.13,21.56,21.34,39.03,42.9,39.03s37.31-17.48,35.17-39.03c-2.14-21.56-21.35-39.04-42.9-39.04Z"/>
      <path class="cls-1" d="M376.33,186.33c-11.47,6.62-18.43,19.49-16.97,34.29,2.14,21.56,21.35,39.04,42.9,39.04,5.16,0,9.98-1,14.3-2.82,11.48-6.63,18.43-19.49,16.96-34.29-2.14-21.56-21.34-39.04-42.9-39.04-5.15,0-9.97,1-14.3,2.82Z"/>
      <path class="cls-2" d="M259.15,277.93c28.21,0,51.08,22.87,51.08,51.08s-22.87,51.08-51.08,51.08-51.08-22.87-51.08-51.08,22.87-51.08,51.08-51.08Z"/>
      <path class="cls-2" d="M150.54,229.34c-12.84,0-24.6,10.41-26.26,23.25-1.66,12.84,7.4,23.26,20.25,23.26s24.6-10.41,26.26-23.26c1.66-12.84-7.4-23.25-20.25-23.25Z"/>
      <path class="cls-1" d="M126.65,265.73c3.4,6.11,9.91,10.12,17.88,10.12,12.84,0,24.6-10.41,26.26-23.25,.49-3.76,.05-7.3-1.12-10.44-3.4-6.12-9.92-10.12-17.88-10.12-12.84,0-24.6,10.41-26.26,23.26-.49,3.76-.05,7.3,1.12,10.44h0Z"/>
      <path class="cls-1" d="M261.02,281.4c26.29,0,47.61,21.32,47.61,47.61s-21.32,47.61-47.61,47.61-47.61-21.32-47.61-47.61,21.32-47.61,47.61-47.61Z"/>
    </g>
    <path class="cls-2" d="M243.9,136.5c7.74,0,13.08,6.27,11.92,14.01-1.16,7.74-8.37,14.02-16.11,14.02s-13.08-6.28-11.92-14.02c1.16-7.74,8.37-14.01,16.11-14.01Z"/>
    <path class="cls-2" d="M449.5,306.01c3.99,0,7.23,4.75,7.23,10.6s-3.24,10.6-7.23,10.6-7.23-4.75-7.23-10.6,3.24-10.6,7.23-10.6Z"/>
  </g>
  <polygon class="cls-1" points="232.16 20.86 238.99 41.35 259.47 48.17 238.99 54.99 232.16 75.48 225.33 54.99 204.85 48.17 225.33 41.35 232.16 20.86"/>
  <polygon class="cls-1" points="569.83 131.38 584.28 174.75 627.62 189.21 584.28 203.67 569.83 247.04 555.37 203.67 512 189.21 555.37 174.75 569.83 131.38"/>
  <polygon class="cls-1" points="83.41 437.24 88.39 452.18 103.33 457.16 88.39 462.15 83.41 477.08 78.43 462.15 63.49 457.16 78.43 452.18 83.41 437.24"/>
  <polygon class="cls-1" points="465.73 488.64 468.62 497.32 477.3 500.21 468.62 503.11 465.73 511.77 462.84 503.11 454.16 500.21 462.84 497.32 465.73 488.64"/>
  <polygon class="cls-1" points="18.1 131.47 21.61 141.98 32.12 145.49 21.61 149 18.1 159.52 14.59 149 4.07 145.49 14.59 141.98 18.1 131.47"/>
  <polygon class="cls-1" points="590.82 390.94 593.74 399.71 602.5 402.63 593.74 405.55 590.82 414.32 587.89 405.55 579.12 402.63 587.89 399.71 590.82 390.94"/>
</svg>